<svg xmlns="http://www.w3.org/2000/svg" width="48" height="48" viewBox="0 0 48 48">
  <path fill="#4285F4" d="M24 9.5c3.5 0 6.4 1.2 8.4 3.1l6.2-6.2C34.2 2.4 29.4 0 24 0 14.6 0 6.8 5.6 2.7 13.8l7.3 5.7C12.1 13.6 17.6 9.5 24 9.5z"/>
  <path fill="#34A853" d="M46.1 24.5c0-1.5-.1-2.9-.4-4.2H24v8h12.6c-.5 2.5-2 4.6-4.3 6.1v5h6.9c4.1-3.8 6.5-9.3 6.5-14.9z"/>
  <path fill="#FBBC05" d="M10 28.2c-1-3-1-6.3 0-9.3l-7.3-5.7C-.4 17.5-.4 30.5 2.7 34.2l7.3-6z"/>
  <path fill="#EA4335" d="M24 48c6.5 0 12-2.1 16-5.8l-6.9-5c-2 1.4-4.7 2.3-9.1 2.3-6.4 0-11.9-4.1-13.9-9.7l-7.3 5.6C6.8 42.4 14.6 48 24 48z"/>
</svg>
